<svg width="154" height="40" viewBox="0 0 154 40" fill="none" xmlns="http://www.w3.org/2000/svg">
<path d="M96.8978 25.9441H91.7926L91.5774 25.643V20.5979L83.118 15.7377V25.9398V25.9441H77.8271V5.02368H83.118V10.4L91.5774 15.2602V5.02368H96.902V25.9441H96.8978ZM145.161 25.9441H139.866V9.72906H131.601L128.014 15.1871L135.153 25.9441H128.909L124.449 18.9205L119.989 25.9441H114.23H113.715H99.1888V5.02368H114.18H114.234H120.42L124.457 11.5785L128.428 5.02368H134.128H134.706H153.528V9.72906H145.174V25.9441H145.161ZM116.855 21.2387L120.88 15.2172L117.268 9.72906H104.475V12.9893H114.015V17.6947H104.475V21.2387H116.855Z" fill="#EA361F"/>
<path d="M14.2692 17.6946V21.2387H5.69585V17.6946H14.2692ZM43.0651 25.9441H21.8342V5.02366L45.7949 4.98926V0.382812H50.3896V4.96346V5.06668H54.9843V9.75056H50.3896V15.4237H50.3938C50.3938 15.4409 50.3938 15.4581 50.3938 15.4753C50.3938 18.6194 52.8874 21.2 55.9547 21.2645V21.2387H70.4307L70.4349 9.72904H61.8531L61.8953 19.4194L56.6213 19.428L56.6002 9.72904H56.5876V5.04518V5.02366H75.7089V25.9441H55.9589C50.3812 25.8796 45.8329 21.2215 45.8076 15.5269L45.7991 15.5183V9.75485V9.73335C39.5674 9.73335 33.3357 9.73335 27.104 9.73335V12.9936H34.9685L37.9177 17.6989H27.1082V21.243H40.0695L43.0651 25.9441ZM14.2777 9.72904V12.9893H5.69163V9.72904H14.2777ZM19.5305 25.9441H19.5432V9.72904V5.02366H0.421875V9.72904V25.9441H0.434532H19.5305Z" fill="#00345B"/>
<path d="M36.8378 39.6903C36.3991 39.6903 36.032 39.5484 35.7366 39.2645C35.4413 38.9807 35.2979 38.6151 35.2979 38.1677C35.2979 37.7204 35.4455 37.3548 35.7366 37.0667C36.032 36.7828 36.3948 36.6409 36.8378 36.6409C37.3779 36.6409 37.7829 36.8817 38.0488 37.3634L37.5214 37.6301C37.4581 37.5054 37.3652 37.4022 37.2429 37.3247C37.1205 37.243 36.9855 37.2043 36.8421 37.2043C36.5805 37.2043 36.3611 37.2946 36.1923 37.4796C36.0235 37.6602 35.935 37.8925 35.935 38.1721C35.935 38.4516 36.0193 38.6839 36.1923 38.8645C36.3611 39.0452 36.5805 39.1398 36.8421 39.1398C36.9855 39.1398 37.1205 39.1011 37.2429 39.0194C37.3652 38.9376 37.4581 38.8344 37.5214 38.7097L38.0488 38.972C37.7745 39.4495 37.3695 39.6903 36.8378 39.6903ZM40.1499 39.6903C39.7153 39.6903 39.3525 39.5484 39.0656 39.2602C38.7787 38.9721 38.6394 38.6065 38.6394 38.1677C38.6394 37.7247 38.7829 37.3592 39.0656 37.0753C39.3525 36.7871 39.7111 36.6452 40.1499 36.6452C40.5887 36.6452 40.9515 36.7871 41.2385 37.0753C41.5254 37.3635 41.6646 37.7247 41.6646 38.1721C41.6646 38.6151 41.5211 38.985 41.2385 39.2688C40.9515 39.5484 40.5887 39.6903 40.1499 39.6903ZM39.5128 38.8602C39.6731 39.0409 39.8841 39.1355 40.1499 39.1355C40.4115 39.1355 40.6267 39.0452 40.787 38.8602C40.9473 38.6753 41.0317 38.4473 41.0317 38.1677C41.0317 37.8882 40.9516 37.6559 40.787 37.4753C40.6267 37.2903 40.4115 37.2 40.1499 37.2C39.8883 37.2 39.6731 37.2903 39.5128 37.4753C39.3525 37.6559 39.2723 37.8882 39.2723 38.1677C39.2723 38.443 39.3525 38.6753 39.5128 38.8602ZM45.0484 39.6387H44.4535L43.0738 37.7161V39.6387H42.4578V36.6882H43.0907L44.4324 38.5419V36.6882H45.0484V39.6387ZM47.3816 39.6903C46.9428 39.6903 46.5757 39.5484 46.2804 39.2645C45.985 38.9807 45.8416 38.6151 45.8416 38.1677C45.8416 37.7204 45.9893 37.3548 46.2804 37.0667C46.5757 36.7828 46.9386 36.6409 47.3816 36.6409C47.9216 36.6409 48.3267 36.8817 48.5925 37.3634L48.0651 37.6301C48.0018 37.5054 47.909 37.4022 47.7866 37.3247C47.6643 37.243 47.5293 37.2043 47.3858 37.2043C47.1242 37.2043 46.9048 37.2946 46.7361 37.4796C46.5673 37.6602 46.4787 37.8925 46.4787 38.1721C46.4787 38.4516 46.5631 38.6839 46.7361 38.8645C46.9048 39.0452 47.1242 39.1398 47.3858 39.1398C47.5293 39.1398 47.6643 39.1011 47.7866 39.0194C47.909 38.9376 48.0018 38.8344 48.0651 38.7097L48.5925 38.972C48.3182 39.4495 47.9132 39.6903 47.3816 39.6903ZM51.6641 39.6387H50.9552L50.3856 38.5893H49.9342V39.6387H49.3182V36.6882H50.6725C50.9721 36.6882 51.2084 36.7785 51.3814 36.9549C51.5544 37.1312 51.643 37.3592 51.643 37.6387C51.643 37.8796 51.5797 38.0774 51.4573 38.228C51.335 38.3785 51.1831 38.4731 51.0101 38.5161L51.6641 39.6387ZM50.5839 38.0387C50.7105 38.0387 50.816 38.0043 50.8962 37.9312C50.9763 37.8581 51.0185 37.7634 51.0185 37.643C51.0185 37.5226 50.9763 37.4237 50.8962 37.3548C50.816 37.286 50.7105 37.2473 50.5839 37.2473H49.9384V38.043H50.5839V38.0387ZM54.5204 39.6387H52.4741V36.6882H54.5204V37.243H53.0901V37.8667H54.4909V38.4215H53.0901V39.0882H54.5204V39.6387ZM56.6511 39.6387H56.0309V37.243H55.1871V36.6882H57.495V37.243H56.6553V39.6387H56.6511ZM60.2965 39.6387H58.2502V36.6882H60.2965V37.243H58.8662V37.8667H60.267V38.4215H58.8662V39.0882H60.2965V39.6387ZM67.929 39.6903C67.4902 39.6903 67.1231 39.5484 66.8278 39.2645C66.5324 38.9807 66.389 38.6151 66.389 38.1677C66.389 37.7204 66.5367 37.3548 66.8278 37.0667C67.1231 36.7828 67.486 36.6409 67.929 36.6409C68.469 36.6409 68.8741 36.8817 69.1399 37.3634L68.6125 37.6301C68.5492 37.5054 68.4564 37.4022 68.334 37.3247C68.2117 37.243 68.0767 37.2043 67.9332 37.2043C67.6716 37.2043 67.4522 37.2946 67.2834 37.4796C67.1147 37.6602 67.0261 37.8925 67.0261 38.1721C67.0261 38.4516 67.1105 38.6839 67.2834 38.8645C67.4522 39.0452 67.6716 39.1398 67.9332 39.1398C68.0767 39.1398 68.2117 39.1011 68.334 39.0194C68.4564 38.9376 68.5492 38.8344 68.6125 38.7097L69.1399 38.972C68.8614 39.4495 68.4606 39.6903 67.929 39.6903ZM71.2368 39.6903C70.8023 39.6903 70.4394 39.5484 70.1525 39.2602C69.8698 38.9721 69.7264 38.6065 69.7264 38.1677C69.7264 37.7247 69.8698 37.3592 70.1525 37.0753C70.4394 36.7871 70.798 36.6452 71.2368 36.6452C71.6756 36.6452 72.0385 36.7871 72.3254 37.0753C72.6123 37.3635 72.7515 37.7247 72.7515 38.1721C72.7515 38.6151 72.608 38.985 72.3254 39.2688C72.0385 39.5484 71.6798 39.6903 71.2368 39.6903ZM70.604 38.8602C70.7643 39.0409 70.9752 39.1355 71.241 39.1355C71.5026 39.1355 71.7178 39.0452 71.8781 38.8602C72.0385 38.6753 72.1228 38.4473 72.1228 38.1677C72.1228 37.8882 72.0427 37.6559 71.8781 37.4753C71.7178 37.2903 71.5026 37.2 71.241 37.2C70.9794 37.2 70.7643 37.2903 70.604 37.4753C70.4436 37.6559 70.3635 37.8882 70.3635 38.1677C70.3635 38.443 70.4436 38.6753 70.604 38.8602ZM76.1353 39.6387H75.5404L74.1607 37.7161V39.6387H73.5447V36.6882H74.1776L75.5193 38.5419V36.6882H76.1353V39.6387ZM78.4727 39.6903C78.0339 39.6903 77.6669 39.5484 77.3715 39.2645C77.0762 38.9807 76.9327 38.6151 76.9327 38.1677C76.9327 37.7204 77.0804 37.3548 77.3715 37.0667C77.6669 36.7828 78.0297 36.6409 78.4727 36.6409C79.0128 36.6409 79.4178 36.8817 79.6836 37.3634L79.1562 37.6301C79.0929 37.5054 79.0001 37.4022 78.8778 37.3247C78.7554 37.243 78.6204 37.2043 78.4769 37.2043C78.2153 37.2043 77.996 37.2946 77.8272 37.4796C77.6584 37.6602 77.5698 37.8925 77.5698 38.1721C77.5698 38.4516 77.6542 38.6839 77.8272 38.8645C77.996 39.0452 78.2153 39.1398 78.4769 39.1398C78.6204 39.1398 78.7554 39.1011 78.8778 39.0194C79.0001 38.9376 79.0929 38.8344 79.1562 38.7097L79.6836 38.972C79.4094 39.4495 79.0043 39.6903 78.4727 39.6903ZM82.7552 39.6387H82.0464L81.4768 38.5893H81.0253V39.6387H80.4093V36.6882H81.7637C82.0632 36.6882 82.2995 36.7785 82.4725 36.9549C82.6455 37.1312 82.7341 37.3592 82.7341 37.6387C82.7341 37.8796 82.6708 38.0774 82.5485 38.228C82.4261 38.3785 82.2742 38.4731 82.1012 38.5161L82.7552 39.6387ZM81.6751 38.0387C81.8017 38.0387 81.9071 38.0043 81.9873 37.9312C82.0675 37.8581 82.1096 37.7634 82.1096 37.643C82.1096 37.5226 82.0675 37.4237 81.9873 37.3548C81.9071 37.286 81.8017 37.2473 81.6751 37.2473H81.0295V38.043H81.6751V38.0387ZM85.6116 39.6387H83.5653V36.6882H85.6116V37.243H84.1813V37.8667H85.582V38.4215H84.1813V39.0882H85.6116V39.6387ZM87.7423 39.6387H87.122V37.243H86.2782V36.6882H88.5861V37.243H87.7465V39.6387H87.7423ZM91.3876 39.6387H89.3413V36.6882H91.3876V37.243H89.9573V37.8667H91.3581V38.4215H89.9573V39.0882H91.3876V39.6387ZM93.9571 39.6387H93.3411V36.6882H94.6955C94.9992 36.6882 95.2355 36.7785 95.4085 36.9591C95.5815 37.1398 95.6659 37.3678 95.6659 37.6387C95.6659 37.9054 95.5773 38.1333 95.4043 38.314C95.2313 38.4989 94.995 38.5893 94.6912 38.5893H93.9529V39.6387H93.9571ZM94.6111 38.0387C94.7334 38.0387 94.8389 38.0043 94.9149 37.9312C94.995 37.8581 95.033 37.7634 95.033 37.643C95.033 37.5226 94.995 37.4237 94.9149 37.3548C94.8347 37.2817 94.7334 37.2473 94.6111 37.2473H93.9571V38.043H94.6111V38.0387ZM98.7501 39.6387H98.0413L97.4717 38.5893H97.0202V39.6387H96.4042V36.6882H97.7586C98.0582 36.6882 98.2944 36.7785 98.4674 36.9549C98.6404 37.1312 98.729 37.3592 98.729 37.6387C98.729 37.8796 98.6657 38.0774 98.5434 38.228C98.421 38.3785 98.2691 38.4731 98.0961 38.5161L98.7501 39.6387ZM97.67 38.0387C97.7966 38.0387 97.902 38.0043 97.9822 37.9312C98.0624 37.8581 98.1046 37.7634 98.1046 37.643C98.1046 37.5226 98.0624 37.4237 97.9822 37.3548C97.902 37.2817 97.7966 37.2473 97.67 37.2473H97.0245V38.043H97.67V38.0387ZM100.931 39.6903C100.497 39.6903 100.134 39.5484 99.8471 39.2602C99.5602 38.9721 99.4209 38.6065 99.4209 38.1677C99.4209 37.7247 99.5644 37.3592 99.8471 37.0753C100.134 36.7871 100.493 36.6452 100.931 36.6452C101.37 36.6452 101.733 36.7871 102.02 37.0753C102.307 37.3635 102.446 37.7247 102.446 38.1721C102.446 38.6151 102.303 38.985 102.02 39.2688C101.733 39.5484 101.37 39.6903 100.931 39.6903ZM100.294 38.8602C100.455 39.0409 100.666 39.1355 100.931 39.1355C101.197 39.1355 101.408 39.0452 101.568 38.8602C101.729 38.6753 101.813 38.4473 101.813 38.1677C101.813 37.8882 101.733 37.6559 101.568 37.4753C101.408 37.2903 101.193 37.2 100.931 37.2C100.67 37.2 100.455 37.2903 100.294 37.4753C100.134 37.6559 100.054 37.8882 100.054 38.1677C100.054 38.443 100.134 38.6753 100.294 38.8602ZM104.378 39.6387H103.239V36.6882H104.378C104.834 36.6882 105.201 36.8258 105.488 37.0968C105.771 37.3678 105.914 37.7247 105.914 38.1677C105.914 38.6108 105.771 38.9678 105.488 39.2344C105.21 39.5011 104.838 39.6387 104.378 39.6387ZM104.378 39.0839C104.657 39.0839 104.876 38.9936 105.041 38.8172C105.205 38.6409 105.286 38.4215 105.286 38.1635C105.286 37.8925 105.205 37.6688 105.045 37.4968C104.885 37.3247 104.665 37.2387 104.378 37.2387H103.855V39.0839H104.378ZM108.994 39.3592C108.775 39.5785 108.45 39.6903 108.02 39.6903C107.593 39.6903 107.269 39.5785 107.045 39.3548C106.826 39.1312 106.712 38.8344 106.712 38.4602V36.6882H107.336V38.4387C107.336 38.6495 107.395 38.8215 107.513 38.9462C107.631 39.071 107.8 39.1355 108.015 39.1355C108.231 39.1355 108.399 39.071 108.517 38.9462C108.636 38.8215 108.695 38.6538 108.695 38.4387V36.6882H109.323V38.4559C109.328 38.8387 109.218 39.1398 108.994 39.3592ZM111.657 39.6903C111.218 39.6903 110.851 39.5484 110.555 39.2645C110.26 38.9807 110.117 38.6151 110.117 38.1677C110.117 37.7204 110.264 37.3548 110.555 37.0667C110.851 36.7828 111.214 36.6409 111.657 36.6409C112.197 36.6409 112.602 36.8817 112.867 37.3634L112.34 37.6301C112.277 37.5054 112.184 37.4022 112.062 37.3247C111.939 37.243 111.804 37.2043 111.661 37.2043C111.399 37.2043 111.18 37.2946 111.011 37.4796C110.842 37.6602 110.754 37.8925 110.754 38.1721C110.754 38.4516 110.838 38.6839 111.011 38.8645C111.18 39.0452 111.399 39.1398 111.661 39.1398C111.804 39.1398 111.939 39.1011 112.062 39.0194C112.184 38.9376 112.277 38.8344 112.34 38.7097L112.867 38.972C112.593 39.4495 112.188 39.6903 111.657 39.6903ZM114.888 39.6387H114.268V37.243H113.424V36.6882H115.732V37.243H114.893V39.6387H114.888ZM117.483 39.6903C116.969 39.6903 116.559 39.5355 116.26 39.2215L116.593 38.7441C116.842 39.0108 117.15 39.1441 117.513 39.1441C117.673 39.1441 117.795 39.114 117.884 39.0495C117.973 38.985 118.015 38.9075 118.015 38.8172C118.015 38.7355 117.973 38.671 117.893 38.6194C117.808 38.5678 117.707 38.529 117.585 38.5032C117.462 38.4817 117.327 38.4473 117.184 38.4C117.04 38.357 116.905 38.3054 116.783 38.2495C116.66 38.1936 116.559 38.1032 116.475 37.9828C116.39 37.8624 116.353 37.7161 116.353 37.5398C116.353 37.286 116.454 37.0753 116.652 36.8989C116.85 36.7269 117.116 36.6409 117.449 36.6409C117.909 36.6409 118.285 36.7785 118.576 37.0538L118.234 37.514C118.006 37.2989 117.724 37.1914 117.395 37.1914C117.264 37.1914 117.163 37.2172 117.091 37.2731C117.019 37.3247 116.981 37.3979 116.981 37.4882C116.981 37.557 117.023 37.6172 117.104 37.6688C117.188 37.7161 117.289 37.7548 117.412 37.7763C117.534 37.8022 117.669 37.8366 117.812 37.8796C117.956 37.9269 118.087 37.9785 118.213 38.0344C118.336 38.0903 118.437 38.1807 118.521 38.3054C118.606 38.4258 118.644 38.5763 118.644 38.7441C118.644 39.028 118.542 39.2559 118.348 39.428C118.146 39.6043 117.859 39.6903 117.483 39.6903ZM64.7308 39.6387H64.0262C63.9672 39.5785 63.8954 39.5054 63.8111 39.4194C63.5748 39.6043 63.309 39.6946 63.0221 39.6946C62.7436 39.6946 62.5158 39.6215 62.3386 39.4753C62.1571 39.329 62.0685 39.1183 62.0685 38.843C62.0685 38.6409 62.1234 38.4731 62.2373 38.3398C62.347 38.2065 62.4989 38.0903 62.6888 37.9957C62.5622 37.7505 62.4989 37.5398 62.4989 37.3591C62.4989 37.157 62.5748 36.9893 62.731 36.8559C62.8871 36.7183 63.0854 36.6538 63.3259 36.6538C63.541 36.6538 63.7182 36.7097 63.8659 36.8258C64.0136 36.9376 64.0853 37.0925 64.0853 37.2774C64.0853 37.385 64.0684 37.4796 64.0305 37.5656C63.9925 37.6516 63.9376 37.7247 63.8575 37.7892C63.7815 37.8538 63.7098 37.9054 63.6423 37.9484C63.5748 37.9871 63.4862 38.0344 63.3765 38.086C63.4398 38.172 63.5242 38.2796 63.6296 38.4043C63.6634 38.4473 63.7056 38.5032 63.7647 38.572C63.8237 38.6409 63.8575 38.6882 63.8744 38.7054C63.9883 38.5247 64.0769 38.3312 64.1402 38.1333L64.5832 38.3398C64.4608 38.6108 64.3258 38.8473 64.1781 39.0538C64.368 39.2559 64.5536 39.4538 64.7308 39.6387ZM63.1022 39.2473C63.2457 39.2473 63.3807 39.1957 63.5199 39.0968C63.3765 38.9333 63.2668 38.8086 63.1993 38.7226C63.098 38.5979 63.001 38.4645 62.9081 38.3355C62.7394 38.4559 62.655 38.6065 62.655 38.7871C62.655 38.9247 62.6972 39.0366 62.7858 39.1226C62.8702 39.2043 62.9757 39.2473 63.1022 39.2473ZM63.0516 37.3634C63.0516 37.4667 63.0938 37.6 63.1782 37.7634C63.3216 37.6946 63.4271 37.6258 63.5031 37.557C63.579 37.4882 63.6128 37.4022 63.6128 37.2989C63.6128 37.2215 63.5874 37.1613 63.541 37.1183C63.4904 37.0753 63.4313 37.0538 63.3596 37.0538C63.271 37.0538 63.1993 37.0839 63.1444 37.1441C63.0769 37.2 63.0516 37.2774 63.0516 37.3634Z" fill="#00345B"/>
</svg>
